<svg width="1022" height="568" viewBox="0 0 1022 568" fill="none" xmlns="http://www.w3.org/2000/svg">
<path d="M475.468 387.285C491.908 385.442 507.075 389.214 520.442 398.95L513.694 405.458C501.662 397.541 488.075 394.333 473.827 396.862C459.811 399.323 447.385 407.344 439.362 419.094C430.816 431.457 427.561 446.722 430.317 461.49C433.009 475.635 441.279 488.101 453.262 496.079C465.524 504.29 480.581 507.211 495.025 504.162C509.212 501.272 521.623 492.742 529.406 480.527C537.99 467.203 539.993 452.453 536.576 437.145C534.782 431.206 533.165 427.734 530.104 422.407C532.412 420.564 534.843 418.36 537.096 416.406C541.382 422.927 544.444 430.171 546.122 437.788C553.745 472.542 530.404 506.476 495.717 513.426C479.129 516.647 461.948 513.15 447.936 503.709C433.966 494.2 424.337 479.535 421.159 462.935C417.865 445.864 421.689 428.199 431.745 414.018C442.688 398.282 456.953 390.579 475.468 387.285Z" fill="#D8A221"/>
<path d="M127.273 385.816C130.282 386.863 150.64 398.049 154.711 400.223L212.503 430.967C205.682 435.351 195.586 440.629 188.314 444.707C184.931 442.141 184.003 441.388 180.109 439.576C185.079 436.772 190.092 434.041 195.146 431.396C173.646 419.284 149.356 406.983 127.365 395.38C105.207 407.069 82.3382 419.707 59.9836 430.789C68.3666 435.455 76.7987 440.029 85.2779 444.511L127.19 467.032L158.296 450.279C161.937 451.718 165.662 453.102 169.324 454.504C156.23 462.011 140.745 469.701 127.279 476.718C108.575 466.958 89.9798 456.99 71.4961 446.819C62.3483 441.799 51.2686 436.031 42.52 430.648C70.4062 416.614 99.6119 400.566 127.273 385.816Z" fill="#DAA527"/>
<path d="M884.585 420.215L909.8 420.203L909.849 509.054L884.518 509.03L884.585 420.215Z" fill="#D6A42B"/>
<path d="M479.05 412.341C489.747 411.808 494.933 413.155 504.142 418.439L497.646 425.126C492.759 422.958 489.82 421.801 484.193 421.642C476.282 421.433 468.635 424.483 463.032 430.073C457.417 435.651 454.333 443.28 454.49 451.191C454.76 468.14 468.481 480.943 485.467 479.896C493.317 479.394 500.64 475.788 505.82 469.867C513.045 461.447 513.314 451.069 511.612 441.076C511.312 439.325 511.68 439.472 512.806 438.241L518.256 433.269C519.517 436.239 520.576 438.988 521.262 442.148C523.417 452.41 521.385 463.113 515.617 471.875C509.983 480.539 501.062 486.54 490.91 488.487C480.685 490.514 470.073 488.303 461.501 482.37C453.533 476.816 447.572 467.387 445.83 457.847C443.953 447.585 446.285 436.998 452.301 428.475C459.125 418.635 467.704 414.484 479.05 412.341Z" fill="#DAA527"/>
<path d="M548.173 369.816L548.865 370.379C549.496 373.11 549.238 382.246 549.226 385.516C543.887 390.91 538.303 396.053 534.041 402.299C540.25 398.729 546.177 392.612 551.522 387.659C556.562 388.357 562.146 388.859 567.24 389.422C561.154 395.612 553.035 402.783 546.569 408.814C542.485 408.655 538.193 408.63 534.084 408.538C522.677 419.266 505.746 434.237 495.533 445.381C497.046 451.234 496.911 458.276 491.143 461.741C482.087 468.128 466.13 457.382 470.306 447.015C473.956 437.959 482.363 435.676 490.476 439.288C502.428 427.299 515.623 414.949 527.936 403.23C527.789 398.692 527.838 393.831 527.802 389.269C534.488 382.681 541.279 376.19 548.173 369.816Z" fill="#DAA527"/>
<path d="M847.994 444.138C856.352 444.309 865.108 444.199 873.503 444.211L873.447 509.048L848.006 509.011L847.994 444.138Z" fill="#D3A127"/>
<path d="M910.192 368.138C911.288 367.949 910.749 367.863 911.802 368.5C911.98 371.622 907.755 397.535 907.082 402.28L898.099 393.561C861.098 430.979 828.241 447.438 776.44 455.692L774.799 455.398L774.726 454.724C777.102 453.396 784.737 451.816 788.037 450.824C793.952 448.987 799.8 446.924 805.555 444.634C843.635 429.528 861.63 413.896 890.011 385.907L880.416 378.027C890.396 374.904 900.322 371.61 910.192 368.138Z" fill="#DAA527"/>
<path d="M811.746 463.089H836.997L837.071 509.115L811.654 509.06L811.746 463.089Z" fill="#D09C24"/>
<path d="M72.1599 455.367C74.9704 456.935 77.8636 458.355 80.7365 459.806L80.6832 480.833C111.771 502.925 136.679 505.564 168.57 483.552L168.275 493.085L167.461 494.64C134.786 516.488 100.671 508.123 72.0932 484.372C71.9462 474.826 72.1158 464.944 72.1599 455.367Z" fill="#DAA527"/>
<path d="M129.769 429.773C143.446 432.026 162.422 440.58 175.958 444.376C188.851 447.989 184.991 466.444 185.19 477.667C186.835 479.241 187.469 479.676 188.557 481.721C189.086 484.948 186.813 486.442 187.223 488.591C188.578 495.712 191.909 506.862 190.09 513.946C188.483 514.749 185.373 514.51 183.441 514.522L174.529 514.504C174.38 507.021 177.485 492.069 176.257 485.952C174.33 476.351 178.378 481.709 178.387 475.39C178.397 468.483 179.299 459.506 176.335 453.316C170.061 447.566 131.054 437.617 127.377 433.128C127.49 431.151 127.702 431.622 129.769 429.773Z" fill="#DAA527"/>
<path d="M775.209 476.143L800.761 476.106L800.687 509.134C792.311 508.975 783.58 509.079 775.179 509.06L775.209 476.143Z" fill="#DAA527"/>
<path d="M928.788 543.662C934.972 542.572 940.893 546.619 942.13 552.773C943.366 558.932 939.46 564.945 933.337 566.329C929.241 567.248 924.973 565.882 922.175 562.753C919.376 559.624 918.495 555.228 919.866 551.266C921.244 547.299 924.654 544.39 928.788 543.662Z" fill="#FEFEFE"/>
<path d="M928.108 546.925C939.319 546.246 941.86 557.004 933.172 563.188C930.104 563.421 927.526 563.151 925.304 560.812C923.736 559.147 922.971 556.887 923.203 554.61C923.571 550.636 925.163 549.197 928.108 546.925Z" fill="#001B3C"/>
<path d="M258.129 544.317C262.056 543.049 266.36 544.005 269.382 546.815C272.404 549.625 273.673 553.844 272.696 557.855C271.721 561.865 268.655 565.031 264.68 566.139C258.705 567.799 252.498 564.376 250.715 558.437C248.932 552.497 252.227 546.221 258.129 544.317Z" fill="#FEFEFE"/>
<path d="M258.871 546.956C270.167 546.227 272.575 557.126 263.84 563.378C253.156 564.008 250.873 553.342 258.871 546.956Z" fill="#001B3C"/>
<path d="M31.5177 544.292C35.4333 543.068 39.706 544.041 42.7026 546.846C45.6992 549.65 46.9569 553.85 45.9956 557.836C45.0337 561.829 42.0015 564.988 38.0565 566.121C32.0602 567.835 25.7975 564.413 24.0071 558.437C22.2174 552.46 25.5648 546.16 31.5177 544.292Z" fill="#FEFEFE"/>
<path d="M32.305 546.986C43.4912 546.184 46.02 556.642 37.5635 563.145C26.8273 564.792 23.966 553.367 32.305 546.986Z" fill="#001B3C"/>
<path d="M892.429 543.57C897.732 543.594 902.03 543.117 906.855 545.841C914.117 549.95 913.327 556.869 909.163 563.102C903.812 567.303 899.097 566.494 892.392 566.39L892.429 543.57Z" fill="#FEFEFE"/>
<path d="M896.28 546.962L897.346 546.968C907.222 546.956 910.865 551.989 906.065 561.027C893.317 568.117 896.109 555.155 896.28 546.962Z" fill="#001B3C"/>
<path d="M720.61 543.753C725.16 543.686 738.14 542.908 737.161 551.273C736.848 553.954 734.473 555.932 732.409 557.506C733.91 560.059 737.534 563.525 736.591 566.274L733.738 566.721C731.803 563.237 729.703 558.583 726.017 557.059C722.521 558.816 725.478 562.208 723.715 566.28L722.588 566.605L721.29 565.778C719.986 563.702 720.58 547.415 720.61 543.753Z" fill="#FEFEFE"/>
<path d="M724.296 546.876C727.419 546.815 730.395 546.264 732.593 548.829C733.358 551.132 733.187 551.358 732.666 553.838C729.654 554.457 727.621 555.234 725.043 553.82C723.788 551.726 724.21 549.387 724.296 546.876Z" fill="#001B3C"/>
<path d="M446.549 543.802C447.458 543.809 448.368 543.796 449.278 543.772C459.358 543.588 470.196 548.566 458.452 557.475C459.738 559.998 463.485 563.88 462.266 566.323L459.523 566.519C457.723 563.317 455.173 558.216 451.689 556.985C448.338 558.155 451.522 563.445 449.194 566.311L447.169 566.2C445.902 564.088 446.519 547.599 446.549 543.802Z" fill="#FEFEFE"/>
<path d="M449.984 546.833C451.288 546.815 452.593 546.827 453.898 546.852C456.559 546.931 457.05 547.17 458.709 548.946C459.407 551.113 459.113 551.615 458.599 553.801C455.381 554.665 453.495 555.663 450.796 554.12C449.536 552.02 449.935 549.374 449.984 546.833Z" fill="#001B3C"/>
<path d="M168.757 556.71C170.259 553.71 174.476 544.409 177.15 543.502L178.134 544.2C180.11 547.954 181.308 564.18 177.601 566.543L176.554 565.943C176.11 562.619 176.256 558.173 176.25 554.744C176.263 553.795 176.167 552.601 176.119 551.634L175.577 551.505C173.88 553.244 170.714 559.784 168.719 562.827C165.712 558.271 163.957 555.063 161.593 550.189C161.526 554.138 162.123 563.947 160.013 566.347L158.543 566.421C156.812 564.168 157.594 547.538 157.642 543.704C164.24 543.741 165.151 550.917 168.41 556.165L168.757 556.71Z" fill="#FEFEFE"/>
<path d="M66.3613 560.335C66.4115 557.23 66.0588 545.468 67.3434 543.851L69.1093 543.882C70.7785 547.09 70.1441 562.276 70.1117 566.696C69.6861 566.678 68.088 566.647 67.8198 566.513C64.3389 564.786 57.4082 553.165 55.3294 550.127C55.4402 553.63 56.1615 564.59 53.8011 566.611L52.9733 566.029C51.1051 561.033 51.7854 549.436 51.8644 543.668C57.3506 543.937 63.2159 555.491 66.3613 560.335Z" fill="#FEFEFE"/>
<path d="M222.094 560.365C222.083 557.598 221.781 545.333 222.931 543.858L224.084 543.894C226.826 546.833 225.796 561.914 225.733 566.764C220.006 566.341 214.584 555.24 211.082 550.379C211.121 554.659 212.062 563.696 209.774 566.415L208.506 566.501C206.623 563.978 207.44 547.942 207.491 543.607C207.923 543.631 209.368 543.698 209.641 543.858C213.223 545.946 219.924 557.206 222.094 560.365Z" fill="#FEFEFE"/>
<path d="M478.628 543.656L481.444 543.962C484.15 546.454 490.329 563.145 490.702 566.035C485.381 568.099 487.806 562.717 483.728 561.008L475.707 561.02C475.37 561.859 475.021 562.686 474.66 563.513C473.662 565.735 473.539 565.845 471.751 566.513L470.912 565.876C470.674 561.345 476.644 548.462 478.628 543.656Z" fill="#FEFEFE"/>
<path d="M480.231 548.701C481.53 550.777 483.207 554.824 483.385 557.328L482.381 558.1C480.678 558.069 479.338 558.296 478.07 557.285C477.464 554.61 479.142 551.652 480.231 548.701Z" fill="#001B3C"/>
<path d="M872.027 543.588C873.313 543.637 873.747 543.741 875.027 543.949C878.45 547.819 882.595 560.904 883.863 566.078L882.534 566.703C880.373 565.784 879.656 563.727 878.407 561.437L876.876 561.118C874.525 561.039 871.488 560.733 869.314 561.388C867.863 564.168 867.196 566.054 864.526 567.174L865.187 567.162C863.804 566.831 864.324 567.217 863.583 566.047C863.498 564.976 871.09 546.043 872.027 543.588Z" fill="#FEFEFE"/>
<path d="M873.46 548.603C875.083 550.452 876.583 554.738 876.981 557.224L876.074 558.002C874.219 558.057 872.731 558.388 871.335 557.322C870.803 554.787 872.48 551.517 873.46 548.603Z" fill="#001B3C"/>
<path d="M588.861 543.545C590.085 543.686 591.488 543.588 592.167 544.335C594.506 546.919 601.015 563.782 601.015 566.194C595.425 567.192 598.309 562.894 594.494 561.033C581.55 560.708 588.72 561.547 581.85 567.082L580.907 566.843C580.093 563.212 584.483 555.938 585.695 551.897C586.418 549.485 587.942 545.982 588.861 543.545Z" fill="#FEFEFE"/>
<path d="M590.483 548.621C591.836 549.932 593.428 555.087 594.004 557.01L593.134 557.928C590.342 557.898 589.663 558.326 588.071 556.82C587.624 554.555 589.516 550.966 590.483 548.621Z" fill="#001B3C"/>
<path d="M549.998 543.331C554.076 543.404 557.982 543.87 560.272 547.758C557.272 549.031 544.799 545.345 543.862 551.707C542.815 558.835 548.24 566.323 556.194 561.614C557.523 559.612 557.333 560.653 556.947 558.418C554.957 556.802 554.908 557.34 551.737 557.114C552.079 555.797 552.067 555.92 552.637 554.689C554.921 553.593 558.068 554.046 560.713 554.157C560.768 557.23 560.829 559.771 560.603 562.863C556.813 569.017 544.371 567.695 541.211 559.41C540.048 556.312 540.164 552.883 541.536 549.87C543.415 545.786 546.024 544.721 549.998 543.331Z" fill="#FEFEFE"/>
<path d="M91.6526 553.507C91.6098 551.034 91.1744 545.229 92.5595 543.668L93.8649 543.876C96.2804 547.201 95.291 561.461 95.215 566.494C93.7204 566.445 93.7902 566.445 92.3868 565.919C91.0893 563.488 91.619 559.551 91.709 556.593L81.2104 556.771C81.2306 558.21 81.238 559.649 81.2325 561.088C81.2104 563.862 81.4021 564.902 79.6576 566.611L78.6944 566.121C76.8085 561.369 77.5849 549.056 77.6805 543.417C79.1145 543.625 79.1139 543.662 80.4499 544.256C81.726 546.901 81.2447 550.324 81.2239 553.477L91.6526 553.507Z" fill="#FEFEFE"/>
<path d="M747.031 543.564C750.35 543.68 760.673 542.786 762.179 545.107L761.641 546.515C759.063 547.464 755.242 546.539 751.525 547.072C750.307 548.842 750.76 549.234 750.711 551.854C752.499 554.848 755.781 552.271 760.067 553.465L760.612 554.653L760.098 555.859C757.593 557.187 754.06 556.569 750.815 556.514L750.889 562.845C754.036 562.766 760.269 562.319 762.694 564.419C759.449 567.088 751.366 566.501 747.098 566.433L747.031 543.564Z" fill="#FEFEFE"/>
<path d="M796.009 543.025C803.02 545.137 796.224 558.926 800.467 561.761C812.854 570.027 808.549 546.533 812.254 542.896L813.778 544.378L813.803 546.784C814.017 553.067 815.119 562.123 808.825 566.188C802.579 570.229 795.66 563.561 795.158 557.328C794.864 553.716 794.938 546.484 796.009 543.025Z" fill="#FEFEFE"/>
<path d="M377.016 543.631C381.175 543.723 388.913 542.927 391.997 544.813L392.103 545.829C389.3 548.701 383.986 545.021 380.778 547.874C380.551 550.177 380.447 550.342 380.859 552.699C383.015 553.716 386.656 552.803 389.873 553.214C390.83 554.72 390.575 553.912 390.369 555.749C388.582 557.273 383.711 556.587 380.678 556.563C380.673 558.528 380.34 561.474 381.347 562.71C385.322 562.594 388.483 562.79 392.142 564.413L392.279 565.472C389.097 566.605 380.751 566.384 376.99 566.372L377.016 543.631Z" fill="#FEFEFE"/>
<path d="M519.015 543.741C523.387 543.613 530.116 542.97 533.821 545.339L533.221 546.062C529.498 547.329 526.418 546.993 522.487 546.901C522.334 549.43 522.248 550.201 522.591 552.663C524.563 553.826 528.487 552.76 531.965 553.354L532.578 554.279L532.302 555.614C530.135 557.261 525.518 556.649 522.548 556.563L522.524 562.894C527.312 562.833 529.271 562.441 533.814 563.966L534.09 564.651C530.312 567.033 523.528 566.464 518.966 566.378L519.015 543.741Z" fill="#FEFEFE"/>
<path d="M186.529 543.588C189.784 543.729 200.378 542.866 201.721 545.37C199.354 549.295 193.958 545.033 190.432 547.593C190.012 550.109 190.073 550.146 190.346 552.736C192.076 553.771 195.693 552.914 198.701 553.128C200.107 554.383 199.787 553.624 200.07 555.253L199.452 555.908C196.572 557.071 193.471 556.728 190.286 556.698C190.273 558.485 189.991 561.547 190.917 562.741C194.581 562.637 198.305 562.735 201.527 564.651L201.409 565.496C198.365 566.703 190.206 566.396 186.587 566.36L186.529 543.588Z" fill="#FEFEFE"/>
<path d="M102.465 543.686C107.328 543.619 112.874 543.111 117.227 545.333L116.908 545.988C113.099 547.299 110.308 546.992 106.284 546.907C106.178 548.897 106.194 551.205 106.156 553.226C106.745 553.195 107.335 553.165 107.925 553.14C110.77 553.018 112.933 552.583 115.083 554.567L114.719 555.546C112.119 557.028 109.356 556.526 106.23 556.416C106.184 558.675 105.95 560.445 106.7 562.57C110.672 564.284 115.737 560.886 117.605 564.486L116.974 565.619C114.838 566.929 105.423 566.409 102.295 566.39C102.454 558.822 102.511 551.254 102.465 543.686Z" fill="#FEFEFE"/>
<path d="M777.175 543.27C780.298 543.313 784.388 544.005 785.949 546.974L785.478 548.309C781.804 549.362 779.575 545.217 775.063 547.905L774.86 549.025C777.946 554.071 787.627 554.836 786.862 562.123C785.129 565.129 782.527 566.041 779.306 566.911C775.491 566.39 772.215 565.649 769.76 562.276L770.354 561.333C775.767 559.967 778.13 566.96 782.833 561.21C781.988 555.693 770.323 555.687 770.342 548.321C771.793 545.309 774.187 544.372 777.175 543.27Z" fill="#FEFEFE"/>
<path d="M405.994 543.306C408.799 543.331 413.706 544.262 414.869 547.048L413.727 548.603C410.742 549.056 410.944 547.219 406.73 546.564C404.96 546.962 405.067 546.889 403.816 548.199C404.189 552.969 412.001 552.46 415.751 559.263C415.97 563.941 412.827 565.417 408.791 566.837C405.402 566.599 400.057 565.337 398.736 561.798C399.885 560.757 399.922 560.904 401.503 560.696C405.249 563.072 407.586 564.719 411.649 561.596C411.398 556.489 388.101 550.691 405.994 543.306Z" fill="#FEFEFE"/>
<path d="M956.549 543.276C959.666 543.288 963.854 543.943 965.318 547.011L964.613 548.346C960.774 549.074 959.213 545.119 954.657 547.635C952.784 552.43 963.738 552.907 966.94 560.347C966.757 564.725 961.772 566.201 957.994 566.88C953.12 566.17 951.939 565.466 949.104 561.694L949.514 560.898C954.021 560.99 958.968 565.913 962.311 561.186C961.54 556.575 953.868 556.636 950.132 550.458C949.667 545.909 952.814 544.733 956.549 543.276Z" fill="#FEFEFE"/>
<path d="M131.836 543.368C135.933 543.888 139.698 544.684 141.532 548.958C138.205 549.46 122.066 541.286 125.842 558.877C126.711 562.925 132.176 564.131 136.122 562.423C138.249 560.733 137.151 561.045 139.385 560.739L140.41 561.572L140.142 563.09C136.72 567.437 131.466 567.817 126.761 565.184C124.382 563.831 122.647 561.572 121.945 558.926C121.002 555.393 121.57 551.622 123.513 548.517C125.648 545.107 128.167 544.317 131.836 543.368Z" fill="#FEFEFE"/>
<path d="M10.8271 543.355C13.7062 543.735 18.9585 544.715 19.6014 548.101L18.0492 549.417L16.7873 549.007C7.90704 546.05 0.664685 546.864 4.65018 558.828C6.18155 563.427 10.6477 564.241 14.9289 562.294C17.222 560.586 16.0476 560.843 18.3903 560.769L19.2432 561.7C18.8624 563.892 16.6642 565.888 14.5438 566.323C-1.81269 569.654 -6.16189 547.366 10.8271 543.355Z" fill="#FEFEFE"/>
<path d="M840.64 543.962C843.708 543.46 856.683 543.104 859.181 544.507L859.395 545.443C857.528 548.554 856.187 545.743 852.629 547.36C851.766 550.06 852.176 556.355 852.237 559.477C852.268 561.608 852.238 563.188 852.115 565.313C851.099 566.69 851.791 566.28 850.113 566.727C847.615 564.057 848.447 551.315 848.521 547.06C844.039 546.888 842.355 548.346 840.64 543.962Z" fill="#FEFEFE"/>
<path d="M420.902 543.992C424.091 543.515 437.662 542.302 439.49 545.125L439.157 546.227C437.065 547.286 434.65 546.993 432.246 546.974L432.218 559.343C432.32 562.343 433.074 565.019 430.509 566.966L429.786 566.488C427.906 562.153 428.479 552.142 428.531 547.06C424.128 547.133 422.698 548.217 420.902 543.992Z" fill="#FEFEFE"/>
<path d="M230.138 544.035C234.564 543.754 243.497 543.19 247.453 544.072C248.09 545.615 248.015 544.862 247.528 546.399C245.846 547.384 243.191 547.011 241.104 546.95L241.115 559.496C241.214 562.086 241.839 564.676 239.813 566.415L238.511 566.054C235.466 561.247 239.46 549.932 236.474 547.035C232.366 547.097 231.591 547.831 230.138 544.035Z" fill="#FEFEFE"/>
<path d="M493.862 543.704C497.18 543.747 509.916 542.866 511.557 544.745L511.318 546.344C508.796 548.034 507.332 545.952 504.81 547.495C504.038 550.036 504.399 556.391 504.454 559.349C504.583 562.839 505.33 564.4 502.801 566.85L502.06 566.409C500.236 562.196 500.891 552.038 500.989 547.029C499.256 546.962 497.517 546.931 495.784 546.937C493.8 545.664 494.602 546.558 493.862 543.704Z" fill="#FEFEFE"/>
<path d="M823.526 543.325C824.892 543.484 825.008 543.551 826.319 544.017C827.96 546.925 827.225 558.994 827.182 562.919C830.213 562.986 834.413 562.098 836.973 563.402C837.842 563.843 837.75 565.019 837.989 566.292L823.508 566.427L823.526 543.325Z" fill="#FEFEFE"/>
<path d="M569.328 543.423C571.355 543.711 571.679 543.386 572.855 544.531C573.418 550.17 573.057 560.353 572.996 566.421C571.545 566.384 571.575 566.335 570.191 565.833C568.318 562.478 569.236 548.229 569.328 543.423Z" fill="#FEFEFE"/>
<path d="M147.292 543.233C148.21 543.478 148.894 543.76 149.784 544.084C151.444 547.886 150.537 562.294 150.426 566.96C149.601 566.745 148.722 566.452 147.901 566.201C146.356 563.121 147.214 547.703 147.292 543.233Z" fill="#FEFEFE"/>
<path d="M252.893 269H244.74L263.06 218.091H271.935L290.255 269H282.102L267.709 227.338H267.311L252.893 269ZM254.261 249.064H280.71V255.527H254.261V249.064ZM367.248 234.646H359.492C359.194 232.989 358.638 231.531 357.826 230.271C357.014 229.012 356.02 227.943 354.843 227.065C353.667 226.186 352.349 225.523 350.891 225.076C349.449 224.629 347.916 224.405 346.292 224.405C343.359 224.405 340.732 225.142 338.412 226.617C336.109 228.092 334.286 230.255 332.944 233.105C331.618 235.955 330.955 239.436 330.955 243.545C330.955 247.688 331.618 251.185 332.944 254.036C334.286 256.886 336.117 259.04 338.437 260.499C340.757 261.957 343.367 262.686 346.267 262.686C347.875 262.686 349.4 262.471 350.841 262.04C352.3 261.592 353.617 260.938 354.794 260.076C355.97 259.214 356.965 258.162 357.777 256.919C358.605 255.66 359.177 254.218 359.492 252.594L367.248 252.619C366.833 255.121 366.029 257.424 364.836 259.529C363.66 261.617 362.143 263.424 360.287 264.948C358.448 266.456 356.343 267.625 353.973 268.453C351.604 269.282 349.018 269.696 346.218 269.696C341.81 269.696 337.882 268.652 334.435 266.564C330.988 264.459 328.27 261.451 326.282 257.54C324.31 253.629 323.324 248.964 323.324 243.545C323.324 238.11 324.318 233.445 326.306 229.55C328.295 225.639 331.013 222.64 334.46 220.552C337.907 218.447 341.826 217.395 346.218 217.395C348.919 217.395 351.438 217.784 353.775 218.563C356.128 219.326 358.241 220.452 360.113 221.944C361.986 223.419 363.535 225.225 364.762 227.363C365.988 229.484 366.817 231.912 367.248 234.646ZM410.147 269H401.994L420.314 218.091H429.189L447.509 269H439.355L424.963 227.338H424.565L410.147 269ZM411.515 249.064H437.963V255.527H411.515V249.064ZM501.091 269H484.611V218.091H501.613C506.602 218.091 510.885 219.11 514.465 221.148C518.045 223.17 520.787 226.079 522.693 229.874C524.615 233.652 525.577 238.184 525.577 243.471C525.577 248.774 524.607 253.331 522.668 257.143C520.746 260.954 517.962 263.888 514.316 265.942C510.67 267.981 506.262 269 501.091 269ZM492.292 262.288H500.669C504.547 262.288 507.77 261.559 510.339 260.101C512.907 258.626 514.83 256.496 516.106 253.712C517.382 250.912 518.02 247.498 518.02 243.471C518.02 239.477 517.382 236.088 516.106 233.304C514.846 230.52 512.965 228.407 510.463 226.965C507.961 225.523 504.853 224.803 501.141 224.803H492.292V262.288ZM564.878 269V218.091H596.796V224.703H572.559V240.214H595.13V246.802H572.559V262.388H597.094V269H564.878ZM636.806 218.091H646.128L662.335 257.665H662.932L679.139 218.091H688.461V269H681.153V232.161H680.68L665.666 268.925H659.601L644.586 232.136H644.114V269H636.806V218.091ZM725.451 218.091H734.176L747.475 241.234H748.022L761.321 218.091H770.046L751.576 249.014V269H743.92V249.014L725.451 218.091Z" fill="white"/>
<path d="M665.836 160V40H687.574V141.777H740.426V160H665.836ZM870.097 100C870.097 112.93 867.675 124.004 862.831 133.223C858.026 142.402 851.464 149.434 843.144 154.316C834.862 159.199 825.468 161.641 814.96 161.641C804.452 161.641 795.038 159.199 786.718 154.316C778.437 149.395 771.874 142.344 767.03 133.164C762.226 123.945 759.823 112.891 759.823 100C759.823 87.0703 762.226 76.0156 767.03 66.8359C771.874 57.6172 778.437 50.5664 786.718 45.6836C795.038 40.8008 804.452 38.3594 814.96 38.3594C825.468 38.3594 834.862 40.8008 843.144 45.6836C851.464 50.5664 858.026 57.6172 862.831 66.8359C867.675 76.0156 870.097 87.0703 870.097 100ZM848.241 100C848.241 90.8984 846.815 83.2227 843.964 76.9726C841.151 70.6836 837.245 65.9375 832.245 62.7344C827.245 59.4922 821.483 57.8711 814.96 57.8711C808.437 57.8711 802.675 59.4922 797.675 62.7344C792.675 65.9375 788.749 70.6836 785.897 76.9726C783.085 83.2227 781.679 90.8984 781.679 100C781.679 109.102 783.085 116.797 785.897 123.086C788.749 129.336 792.675 134.082 797.675 137.324C802.675 140.527 808.437 142.129 814.96 142.129C821.483 142.129 827.245 140.527 832.245 137.324C837.245 134.082 841.151 129.336 843.964 123.086C846.815 116.797 848.241 109.102 848.241 100ZM979.289 78.3203C978.313 75.1562 976.965 72.3242 975.246 69.8242C973.566 67.2852 971.535 65.1172 969.152 63.3203C966.809 61.5234 964.113 60.1758 961.066 59.2773C958.02 58.3398 954.699 57.8711 951.105 57.8711C944.66 57.8711 938.918 59.4922 933.879 62.7344C928.84 65.9766 924.875 70.7422 921.984 77.0312C919.133 83.2812 917.707 90.8984 917.707 99.8828C917.707 108.945 919.133 116.621 921.984 122.91C924.836 129.199 928.801 133.984 933.879 137.266C938.957 140.508 944.855 142.129 951.574 142.129C957.668 142.129 962.941 140.957 967.395 138.613C971.887 136.27 975.344 132.949 977.766 128.652C980.188 124.316 981.398 119.238 981.398 113.418L986.32 114.18H953.742V97.1875H1002.43V111.602C1002.43 121.875 1000.25 130.762 995.871 138.262C991.496 145.762 985.48 151.543 977.824 155.605C970.168 159.629 961.379 161.641 951.457 161.641C940.402 161.641 930.695 159.16 922.336 154.199C914.016 149.199 907.512 142.109 902.824 132.93C898.176 123.711 895.852 112.773 895.852 100.117C895.852 90.4297 897.219 81.7773 899.953 74.1602C902.727 66.543 906.594 60.0781 911.555 54.7656C916.516 49.4141 922.336 45.3516 929.016 42.5781C935.695 39.7656 942.961 38.3594 950.813 38.3594C957.453 38.3594 963.645 39.3359 969.387 41.2891C975.129 43.2031 980.227 45.9375 984.68 49.4922C989.172 53.0469 992.863 57.2656 995.754 62.1484C998.645 67.0312 1000.54 72.4219 1001.44 78.3203H979.289Z" fill="#F3AE15"/>
<path d="M665.836 160V40H687.574V141.777H740.426V160H665.836ZM870.097 100C870.097 112.93 867.675 124.004 862.831 133.223C858.026 142.402 851.464 149.434 843.144 154.316C834.862 159.199 825.468 161.641 814.96 161.641C804.452 161.641 795.038 159.199 786.718 154.316C778.437 149.395 771.874 142.344 767.03 133.164C762.226 123.945 759.823 112.891 759.823 100C759.823 87.0703 762.226 76.0156 767.03 66.8359C771.874 57.6172 778.437 50.5664 786.718 45.6836C795.038 40.8008 804.452 38.3594 814.96 38.3594C825.468 38.3594 834.862 40.8008 843.144 45.6836C851.464 50.5664 858.026 57.6172 862.831 66.8359C867.675 76.0156 870.097 87.0703 870.097 100ZM848.241 100C848.241 90.8984 846.815 83.2227 843.964 76.9726C841.151 70.6836 837.245 65.9375 832.245 62.7344C827.245 59.4922 821.483 57.8711 814.96 57.8711C808.437 57.8711 802.675 59.4922 797.675 62.7344C792.675 65.9375 788.749 70.6836 785.897 76.9726C783.085 83.2227 781.679 90.8984 781.679 100C781.679 109.102 783.085 116.797 785.897 123.086C788.749 129.336 792.675 134.082 797.675 137.324C802.675 140.527 808.437 142.129 814.96 142.129C821.483 142.129 827.245 140.527 832.245 137.324C837.245 134.082 841.151 129.336 843.964 123.086C846.815 116.797 848.241 109.102 848.241 100ZM979.289 78.3203C978.313 75.1562 976.965 72.3242 975.246 69.8242C973.566 67.2852 971.535 65.1172 969.152 63.3203C966.809 61.5234 964.113 60.1758 961.066 59.2773C958.02 58.3398 954.699 57.8711 951.105 57.8711C944.66 57.8711 938.918 59.4922 933.879 62.7344C928.84 65.9766 924.875 70.7422 921.984 77.0312C919.133 83.2812 917.707 90.8984 917.707 99.8828C917.707 108.945 919.133 116.621 921.984 122.91C924.836 129.199 928.801 133.984 933.879 137.266C938.957 140.508 944.855 142.129 951.574 142.129C957.668 142.129 962.941 140.957 967.395 138.613C971.887 136.27 975.344 132.949 977.766 128.652C980.188 124.316 981.398 119.238 981.398 113.418L986.32 114.18H953.742V97.1875H1002.43V111.602C1002.43 121.875 1000.25 130.762 995.871 138.262C991.496 145.762 985.48 151.543 977.824 155.605C970.168 159.629 961.379 161.641 951.457 161.641C940.402 161.641 930.695 159.16 922.336 154.199C914.016 149.199 907.512 142.109 902.824 132.93C898.176 123.711 895.852 112.773 895.852 100.117C895.852 90.4297 897.219 81.7773 899.953 74.1602C902.727 66.543 906.594 60.0781 911.555 54.7656C916.516 49.4141 922.336 45.3516 929.016 42.5781C935.695 39.7656 942.961 38.3594 950.813 38.3594C957.453 38.3594 963.645 39.3359 969.387 41.2891C975.129 43.2031 980.227 45.9375 984.68 49.4922C989.172 53.0469 992.863 57.2656 995.754 62.1484C998.645 67.0312 1000.54 72.4219 1001.44 78.3203H979.289Z" fill="url(#paint0_linear_0_1)" fill-opacity="0.2"/>
<path d="M30.8359 160V40H52.5742V141.777H105.426V160H30.8359ZM154.281 40V160H132.543V40H154.281ZM226.735 160H186.071V40H227.556C239.47 40 249.704 42.4023 258.259 47.207C266.853 51.9727 273.454 58.8281 278.063 67.7734C282.673 76.7187 284.978 87.4219 284.978 99.8828C284.978 112.383 282.653 123.125 278.005 132.109C273.396 141.094 266.735 147.988 258.024 152.793C249.353 157.598 238.923 160 226.735 160ZM207.81 141.191H225.681C234.04 141.191 241.013 139.668 246.599 136.621C252.185 133.535 256.384 128.945 259.196 122.852C262.009 116.719 263.415 109.062 263.415 99.8828C263.415 90.7031 262.009 83.0859 259.196 77.0312C256.384 70.9375 252.224 66.3867 246.716 63.3789C241.247 60.332 234.45 58.8086 226.325 58.8086H207.81V141.191ZM313.882 160V40H391.929V58.2227H335.62V90.8008H387.886V109.023H335.62V141.777H392.397V160H313.882ZM422.356 160V40H467.356C476.575 40 484.31 41.6016 490.56 44.8047C496.849 48.0078 501.595 52.5 504.798 58.2812C508.04 64.0234 509.661 70.7227 509.661 78.3789C509.661 86.0742 508.021 92.7539 504.739 98.418C501.497 104.043 496.712 108.398 490.384 111.484C484.056 114.531 476.282 116.055 467.063 116.055H435.013V98.0078H464.134C469.524 98.0078 473.938 97.2656 477.376 95.7812C480.813 94.2578 483.353 92.0508 484.993 89.1602C486.673 86.2305 487.513 82.6367 487.513 78.3789C487.513 74.1211 486.673 70.4883 484.993 67.4805C483.313 64.4336 480.755 62.1289 477.317 60.5664C473.88 58.9648 469.446 58.1641 464.017 58.1641H444.095V160H422.356ZM484.349 105.625L514.056 160H489.798L460.618 105.625H484.349ZM553.331 160H530.128L572.374 40H599.21L641.515 160H618.312L586.261 64.6094H585.323L553.331 160ZM554.093 112.949H617.374V130.41H554.093V112.949Z" fill="white"/>
<path d="M208.5 238.5V243.5H28.5V238.5H208.5Z" fill="url(#paint1_linear_0_1)"/>
<path d="M988 238V243H808V238H988Z" fill="url(#paint2_linear_0_1)"/>
<defs>
<linearGradient id="paint0_linear_0_1" x1="838" y1="0" x2="838" y2="215" gradientUnits="userSpaceOnUse">
<stop offset="0.317787" stop-color="#E4B843"/>
<stop offset="1" stop-color="#CA9319"/>
</linearGradient>
<linearGradient id="paint1_linear_0_1" x1="118.5" y1="238.5" x2="118.5" y2="243.5" gradientUnits="userSpaceOnUse">
<stop stop-color="#F1D05D"/>
<stop offset="1" stop-color="#DDA31D"/>
</linearGradient>
<linearGradient id="paint2_linear_0_1" x1="898" y1="238" x2="898" y2="243" gradientUnits="userSpaceOnUse">
<stop stop-color="#F1D05D"/>
<stop offset="1" stop-color="#DDA31D"/>
</linearGradient>
</defs>
</svg>
