<svg width="988" height="367" viewBox="0 0 988 367" fill="none" xmlns="http://www.w3.org/2000/svg">
<path d="M475.468 186.285C491.908 184.442 507.075 188.214 520.442 197.95L513.694 204.458C501.662 196.541 488.075 193.333 473.827 195.862C459.811 198.323 447.385 206.344 439.362 218.094C430.816 230.457 427.561 245.722 430.317 260.49C433.009 274.635 441.279 287.101 453.262 295.079C465.524 303.29 480.581 306.211 495.025 303.162C509.212 300.272 521.623 291.742 529.406 279.527C537.99 266.203 539.993 251.453 536.576 236.145C534.782 230.206 533.165 226.734 530.104 221.407C532.412 219.564 534.843 217.36 537.096 215.406C541.382 221.927 544.444 229.171 546.122 236.788C553.745 271.542 530.404 305.476 495.717 312.426C479.129 315.647 461.948 312.15 447.936 302.709C433.966 293.2 424.337 278.535 421.159 261.935C417.865 244.864 421.689 227.199 431.745 213.018C442.688 197.282 456.953 189.579 475.468 186.285Z" fill="#D8A221"/>
<path d="M127.273 184.816C130.282 185.863 150.64 197.049 154.711 199.223L212.503 229.967C205.682 234.351 195.586 239.629 188.314 243.707C184.931 241.141 184.003 240.388 180.109 238.576C185.079 235.772 190.092 233.041 195.146 230.396C173.646 218.284 149.356 205.983 127.365 194.38C105.207 206.069 82.3382 218.707 59.9836 229.789C68.3666 234.455 76.7987 239.029 85.2779 243.511L127.19 266.032L158.296 249.279C161.937 250.718 165.662 252.102 169.324 253.504C156.23 261.011 140.745 268.701 127.279 275.718C108.575 265.958 89.9798 255.99 71.4961 245.819C62.3483 240.799 51.2686 235.031 42.52 229.648C70.4062 215.614 99.6119 199.566 127.273 184.816Z" fill="#DAA527"/>
<path d="M884.585 219.215L909.8 219.203L909.849 308.054L884.518 308.03L884.585 219.215Z" fill="#D6A42B"/>
<path d="M479.05 211.341C489.747 210.808 494.933 212.155 504.142 217.439L497.646 224.126C492.759 221.958 489.82 220.801 484.193 220.642C476.282 220.433 468.635 223.483 463.032 229.073C457.417 234.651 454.333 242.28 454.49 250.191C454.76 267.14 468.481 279.943 485.467 278.896C493.317 278.394 500.64 274.788 505.82 268.867C513.045 260.447 513.314 250.069 511.612 240.076C511.312 238.325 511.68 238.472 512.806 237.241L518.256 232.269C519.517 235.239 520.576 237.988 521.262 241.148C523.417 251.41 521.385 262.113 515.617 270.875C509.983 279.539 501.062 285.54 490.91 287.487C480.685 289.514 470.073 287.303 461.501 281.37C453.533 275.816 447.572 266.387 445.83 256.847C443.953 246.585 446.285 235.998 452.301 227.475C459.125 217.635 467.704 213.484 479.05 211.341Z" fill="#DAA527"/>
<path d="M548.173 168.816L548.865 169.379C549.496 172.11 549.238 181.246 549.226 184.516C543.887 189.91 538.303 195.053 534.041 201.299C540.25 197.729 546.177 191.612 551.522 186.659C556.562 187.357 562.146 187.859 567.24 188.422C561.154 194.612 553.035 201.783 546.569 207.814C542.485 207.655 538.193 207.63 534.084 207.538C522.677 218.266 505.746 233.237 495.533 244.381C497.046 250.234 496.911 257.276 491.143 260.741C482.087 267.128 466.13 256.382 470.306 246.015C473.956 236.959 482.363 234.676 490.476 238.288C502.428 226.299 515.623 213.949 527.936 202.23C527.789 197.692 527.838 192.831 527.802 188.269C534.488 181.681 541.279 175.19 548.173 168.816Z" fill="#DAA527"/>
<path d="M847.994 243.138C856.352 243.309 865.108 243.199 873.503 243.211L873.447 308.048L848.006 308.011L847.994 243.138Z" fill="#D3A127"/>
<path d="M910.192 167.138C911.288 166.949 910.749 166.863 911.802 167.5C911.98 170.622 907.755 196.535 907.082 201.28L898.099 192.561C861.098 229.979 828.241 246.438 776.44 254.692L774.799 254.398L774.726 253.724C777.102 252.396 784.737 250.816 788.037 249.824C793.952 247.987 799.8 245.924 805.555 243.634C843.635 228.528 861.63 212.896 890.011 184.907L880.416 177.027C890.396 173.904 900.322 170.61 910.192 167.138Z" fill="#DAA527"/>
<path d="M811.746 262.089H836.997L837.071 308.115L811.654 308.06L811.746 262.089Z" fill="#D09C24"/>
<path d="M72.1599 254.367C74.9704 255.935 77.8636 257.355 80.7365 258.806L80.6832 279.833C111.771 301.925 136.679 304.564 168.57 282.552L168.275 292.085L167.461 293.64C134.786 315.488 100.671 307.123 72.0932 283.372C71.9462 273.826 72.1158 263.944 72.1599 254.367Z" fill="#DAA527"/>
<path d="M129.769 228.773C143.446 231.026 162.422 239.58 175.958 243.376C188.851 246.989 184.991 265.444 185.19 276.667C186.835 278.241 187.469 278.676 188.557 280.721C189.086 283.948 186.813 285.442 187.223 287.591C188.578 294.712 191.909 305.862 190.09 312.946C188.483 313.749 185.373 313.51 183.441 313.522L174.529 313.504C174.38 306.021 177.485 291.069 176.257 284.952C174.33 275.351 178.378 280.709 178.387 274.39C178.397 267.483 179.299 258.506 176.335 252.316C170.061 246.566 131.054 236.617 127.377 232.128C127.49 230.151 127.702 230.622 129.769 228.773Z" fill="#DAA527"/>
<path d="M775.209 275.143L800.761 275.106L800.687 308.134C792.311 307.975 783.58 308.079 775.179 308.06L775.209 275.143Z" fill="#DAA527"/>
<path d="M928.788 342.662C934.972 341.572 940.893 345.619 942.13 351.773C943.366 357.932 939.46 363.945 933.337 365.329C929.241 366.248 924.973 364.882 922.175 361.753C919.376 358.624 918.495 354.228 919.866 350.266C921.244 346.299 924.654 343.39 928.788 342.662Z" fill="#FEFEFE"/>
<path d="M928.108 345.925C939.319 345.246 941.86 356.004 933.172 362.188C930.104 362.421 927.526 362.151 925.304 359.812C923.736 358.147 922.971 355.887 923.203 353.61C923.571 349.636 925.163 348.197 928.108 345.925Z" fill="#001B3C"/>
<path d="M258.129 343.317C262.056 342.049 266.36 343.005 269.382 345.815C272.404 348.625 273.673 352.844 272.696 356.855C271.721 360.865 268.655 364.031 264.68 365.139C258.705 366.799 252.498 363.376 250.715 357.437C248.932 351.497 252.227 345.221 258.129 343.317Z" fill="#FEFEFE"/>
<path d="M258.871 345.956C270.167 345.227 272.575 356.126 263.84 362.378C253.156 363.008 250.873 352.342 258.871 345.956Z" fill="#001B3C"/>
<path d="M31.5177 343.292C35.4333 342.068 39.706 343.041 42.7026 345.846C45.6992 348.65 46.9569 352.85 45.9956 356.836C45.0337 360.829 42.0015 363.988 38.0565 365.121C32.0602 366.835 25.7975 363.413 24.0071 357.437C22.2174 351.46 25.5648 345.16 31.5177 343.292Z" fill="#FEFEFE"/>
<path d="M32.305 345.986C43.4912 345.184 46.02 355.642 37.5635 362.145C26.8273 363.792 23.966 352.367 32.305 345.986Z" fill="#001B3C"/>
<path d="M892.429 342.57C897.732 342.594 902.03 342.117 906.855 344.841C914.117 348.95 913.327 355.869 909.163 362.102C903.812 366.303 899.097 365.494 892.392 365.39L892.429 342.57Z" fill="#FEFEFE"/>
<path d="M896.28 345.962L897.346 345.968C907.222 345.956 910.865 350.989 906.065 360.027C893.317 367.117 896.109 354.155 896.28 345.962Z" fill="#001B3C"/>
<path d="M720.61 342.753C725.16 342.686 738.14 341.908 737.161 350.273C736.848 352.954 734.473 354.932 732.409 356.506C733.91 359.059 737.534 362.525 736.591 365.274L733.738 365.721C731.803 362.237 729.703 357.583 726.017 356.059C722.521 357.816 725.478 361.208 723.715 365.28L722.588 365.605L721.29 364.778C719.986 362.702 720.58 346.415 720.61 342.753Z" fill="#FEFEFE"/>
<path d="M724.296 345.876C727.419 345.815 730.395 345.264 732.593 347.829C733.358 350.132 733.187 350.358 732.666 352.838C729.654 353.457 727.621 354.234 725.043 352.82C723.788 350.726 724.21 348.387 724.296 345.876Z" fill="#001B3C"/>
<path d="M446.549 342.802C447.458 342.809 448.368 342.796 449.278 342.772C459.358 342.588 470.196 347.566 458.452 356.475C459.738 358.998 463.485 362.88 462.266 365.323L459.523 365.519C457.723 362.317 455.173 357.216 451.689 355.985C448.338 357.155 451.522 362.445 449.194 365.311L447.169 365.2C445.902 363.088 446.519 346.599 446.549 342.802Z" fill="#FEFEFE"/>
<path d="M449.984 345.833C451.288 345.815 452.593 345.827 453.898 345.852C456.559 345.931 457.05 346.17 458.709 347.946C459.407 350.113 459.113 350.615 458.599 352.801C455.381 353.665 453.495 354.663 450.796 353.12C449.536 351.02 449.935 348.374 449.984 345.833Z" fill="#001B3C"/>
<path d="M168.757 355.71C170.259 352.71 174.476 343.409 177.15 342.502L178.134 343.2C180.11 346.954 181.308 363.18 177.601 365.543L176.554 364.943C176.11 361.619 176.256 357.173 176.25 353.744C176.263 352.795 176.167 351.601 176.119 350.634L175.577 350.505C173.88 352.244 170.714 358.784 168.719 361.827C165.712 357.271 163.957 354.063 161.593 349.189C161.526 353.138 162.123 362.947 160.013 365.347L158.543 365.421C156.812 363.168 157.594 346.538 157.642 342.704C164.24 342.741 165.151 349.917 168.41 355.165L168.757 355.71Z" fill="#FEFEFE"/>
<path d="M66.3613 359.335C66.4115 356.23 66.0588 344.468 67.3434 342.851L69.1093 342.882C70.7785 346.09 70.1441 361.276 70.1117 365.696C69.6861 365.678 68.088 365.647 67.8198 365.513C64.3389 363.786 57.4082 352.165 55.3294 349.127C55.4402 352.63 56.1615 363.59 53.8011 365.611L52.9733 365.029C51.1051 360.033 51.7854 348.436 51.8644 342.668C57.3506 342.937 63.2159 354.491 66.3613 359.335Z" fill="#FEFEFE"/>
<path d="M222.094 359.365C222.083 356.598 221.781 344.333 222.931 342.858L224.084 342.894C226.826 345.833 225.796 360.914 225.733 365.764C220.006 365.341 214.584 354.24 211.082 349.379C211.121 353.659 212.062 362.696 209.774 365.415L208.506 365.501C206.623 362.978 207.44 346.942 207.491 342.607C207.923 342.631 209.368 342.698 209.641 342.858C213.223 344.946 219.924 356.206 222.094 359.365Z" fill="#FEFEFE"/>
<path d="M478.628 342.656L481.444 342.962C484.15 345.454 490.329 362.145 490.702 365.035C485.381 367.099 487.806 361.717 483.728 360.008L475.707 360.02C475.37 360.859 475.021 361.686 474.66 362.513C473.662 364.735 473.539 364.845 471.751 365.513L470.912 364.876C470.674 360.345 476.644 347.462 478.628 342.656Z" fill="#FEFEFE"/>
<path d="M480.231 347.701C481.53 349.777 483.207 353.824 483.385 356.328L482.381 357.1C480.678 357.069 479.338 357.296 478.07 356.285C477.464 353.61 479.142 350.652 480.231 347.701Z" fill="#001B3C"/>
<path d="M872.027 342.588C873.313 342.637 873.747 342.741 875.027 342.949C878.45 346.819 882.595 359.904 883.863 365.078L882.534 365.703C880.373 364.784 879.656 362.727 878.407 360.437L876.876 360.118C874.525 360.039 871.488 359.733 869.314 360.388C867.863 363.168 867.196 365.054 864.526 366.174L865.187 366.162C863.804 365.831 864.324 366.217 863.583 365.047C863.498 363.976 871.09 345.043 872.027 342.588Z" fill="#FEFEFE"/>
<path d="M873.46 347.603C875.083 349.452 876.583 353.738 876.981 356.224L876.074 357.002C874.219 357.057 872.731 357.388 871.335 356.322C870.803 353.787 872.48 350.517 873.46 347.603Z" fill="#001B3C"/>
<path d="M588.861 342.545C590.085 342.686 591.488 342.588 592.167 343.335C594.506 345.919 601.015 362.782 601.015 365.194C595.425 366.192 598.309 361.894 594.494 360.033C581.55 359.708 588.72 360.547 581.85 366.082L580.907 365.843C580.093 362.212 584.483 354.938 585.695 350.897C586.418 348.485 587.942 344.982 588.861 342.545Z" fill="#FEFEFE"/>
<path d="M590.483 347.621C591.836 348.932 593.428 354.087 594.004 356.01L593.134 356.928C590.342 356.898 589.663 357.326 588.071 355.82C587.624 353.555 589.516 349.966 590.483 347.621Z" fill="#001B3C"/>
<path d="M549.998 342.331C554.076 342.404 557.982 342.87 560.272 346.758C557.272 348.031 544.799 344.345 543.862 350.707C542.815 357.835 548.24 365.323 556.194 360.614C557.523 358.612 557.333 359.653 556.947 357.418C554.957 355.802 554.908 356.34 551.737 356.114C552.079 354.797 552.067 354.92 552.637 353.689C554.921 352.593 558.068 353.046 560.713 353.157C560.768 356.23 560.829 358.771 560.603 361.863C556.813 368.017 544.371 366.695 541.211 358.41C540.048 355.312 540.164 351.883 541.536 348.87C543.415 344.786 546.024 343.721 549.998 342.331Z" fill="#FEFEFE"/>
<path d="M91.6526 352.507C91.6098 350.034 91.1744 344.229 92.5595 342.668L93.8649 342.876C96.2804 346.201 95.291 360.461 95.215 365.494C93.7204 365.445 93.7902 365.445 92.3868 364.919C91.0893 362.488 91.619 358.551 91.709 355.593L81.2104 355.771C81.2306 357.21 81.238 358.649 81.2325 360.088C81.2104 362.862 81.4021 363.902 79.6576 365.611L78.6944 365.121C76.8085 360.369 77.5849 348.056 77.6805 342.417C79.1145 342.625 79.1139 342.662 80.4499 343.256C81.726 345.901 81.2447 349.324 81.2239 352.477L91.6526 352.507Z" fill="#FEFEFE"/>
<path d="M747.031 342.564C750.35 342.68 760.673 341.786 762.179 344.107L761.641 345.515C759.063 346.464 755.242 345.539 751.525 346.072C750.307 347.842 750.76 348.234 750.711 350.854C752.499 353.848 755.781 351.271 760.067 352.465L760.612 353.653L760.098 354.859C757.593 356.187 754.06 355.569 750.815 355.514L750.889 361.845C754.036 361.766 760.269 361.319 762.694 363.419C759.449 366.088 751.366 365.501 747.098 365.433L747.031 342.564Z" fill="#FEFEFE"/>
<path d="M796.009 342.025C803.02 344.137 796.224 357.926 800.467 360.761C812.854 369.027 808.549 345.533 812.254 341.896L813.778 343.378L813.803 345.784C814.017 352.067 815.119 361.123 808.825 365.188C802.579 369.229 795.66 362.561 795.158 356.328C794.864 352.716 794.938 345.484 796.009 342.025Z" fill="#FEFEFE"/>
<path d="M377.016 342.631C381.175 342.723 388.913 341.927 391.997 343.813L392.103 344.829C389.3 347.701 383.986 344.021 380.778 346.874C380.551 349.177 380.447 349.342 380.859 351.699C383.015 352.716 386.656 351.803 389.873 352.214C390.83 353.72 390.575 352.912 390.369 354.749C388.582 356.273 383.711 355.587 380.678 355.563C380.673 357.528 380.34 360.474 381.347 361.71C385.322 361.594 388.483 361.79 392.142 363.413L392.279 364.472C389.097 365.605 380.751 365.384 376.99 365.372L377.016 342.631Z" fill="#FEFEFE"/>
<path d="M519.015 342.741C523.387 342.613 530.116 341.97 533.821 344.339L533.221 345.062C529.498 346.329 526.418 345.993 522.487 345.901C522.334 348.43 522.248 349.201 522.591 351.663C524.563 352.826 528.487 351.76 531.965 352.354L532.578 353.279L532.302 354.614C530.135 356.261 525.518 355.649 522.548 355.563L522.524 361.894C527.312 361.833 529.271 361.441 533.814 362.966L534.09 363.651C530.312 366.033 523.528 365.464 518.966 365.378L519.015 342.741Z" fill="#FEFEFE"/>
<path d="M186.529 342.588C189.784 342.729 200.378 341.866 201.721 344.37C199.354 348.295 193.958 344.033 190.432 346.593C190.012 349.109 190.073 349.146 190.346 351.736C192.076 352.771 195.693 351.914 198.701 352.128C200.107 353.383 199.787 352.624 200.07 354.253L199.452 354.908C196.572 356.071 193.471 355.728 190.286 355.698C190.273 357.485 189.991 360.547 190.917 361.741C194.581 361.637 198.305 361.735 201.527 363.651L201.409 364.496C198.365 365.703 190.206 365.396 186.587 365.36L186.529 342.588Z" fill="#FEFEFE"/>
<path d="M102.465 342.686C107.328 342.619 112.874 342.111 117.227 344.333L116.908 344.988C113.099 346.299 110.308 345.992 106.284 345.907C106.178 347.897 106.194 350.205 106.156 352.226C106.745 352.195 107.335 352.165 107.925 352.14C110.77 352.018 112.933 351.583 115.083 353.567L114.719 354.546C112.119 356.028 109.356 355.526 106.23 355.416C106.184 357.675 105.95 359.445 106.7 361.57C110.672 363.284 115.737 359.886 117.605 363.486L116.974 364.619C114.838 365.929 105.423 365.409 102.295 365.39C102.454 357.822 102.511 350.254 102.465 342.686Z" fill="#FEFEFE"/>
<path d="M777.175 342.27C780.298 342.313 784.388 343.005 785.949 345.974L785.478 347.309C781.804 348.362 779.575 344.217 775.063 346.905L774.86 348.025C777.946 353.071 787.627 353.836 786.862 361.123C785.129 364.129 782.527 365.041 779.306 365.911C775.491 365.39 772.215 364.649 769.76 361.276L770.354 360.333C775.767 358.967 778.13 365.96 782.833 360.21C781.988 354.693 770.323 354.687 770.342 347.321C771.793 344.309 774.187 343.372 777.175 342.27Z" fill="#FEFEFE"/>
<path d="M405.994 342.306C408.799 342.331 413.706 343.262 414.869 346.048L413.727 347.603C410.742 348.056 410.944 346.219 406.73 345.564C404.96 345.962 405.067 345.889 403.816 347.199C404.189 351.969 412.001 351.46 415.751 358.263C415.97 362.941 412.827 364.417 408.791 365.837C405.402 365.599 400.057 364.337 398.736 360.798C399.885 359.757 399.922 359.904 401.503 359.696C405.249 362.072 407.586 363.719 411.649 360.596C411.398 355.489 388.101 349.691 405.994 342.306Z" fill="#FEFEFE"/>
<path d="M956.549 342.276C959.666 342.288 963.854 342.943 965.318 346.011L964.613 347.346C960.774 348.074 959.213 344.119 954.657 346.635C952.784 351.43 963.738 351.907 966.94 359.347C966.757 363.725 961.772 365.201 957.994 365.88C953.12 365.17 951.939 364.466 949.104 360.694L949.514 359.898C954.021 359.99 958.968 364.913 962.311 360.186C961.54 355.575 953.868 355.636 950.132 349.458C949.667 344.909 952.814 343.733 956.549 342.276Z" fill="#FEFEFE"/>
<path d="M131.836 342.368C135.933 342.888 139.698 343.684 141.532 347.958C138.205 348.46 122.066 340.286 125.842 357.877C126.711 361.925 132.176 363.131 136.122 361.423C138.249 359.733 137.151 360.045 139.385 359.739L140.41 360.572L140.142 362.09C136.72 366.437 131.466 366.817 126.761 364.184C124.382 362.831 122.647 360.572 121.945 357.926C121.002 354.393 121.57 350.622 123.513 347.517C125.648 344.107 128.167 343.317 131.836 342.368Z" fill="#FEFEFE"/>
<path d="M10.8271 342.355C13.7062 342.735 18.9585 343.715 19.6014 347.101L18.0492 348.417L16.7873 348.007C7.90704 345.05 0.664685 345.864 4.65018 357.828C6.18155 362.427 10.6477 363.241 14.9289 361.294C17.222 359.586 16.0476 359.843 18.3903 359.769L19.2432 360.7C18.8624 362.892 16.6642 364.888 14.5438 365.323C-1.81269 368.654 -6.16189 346.366 10.8271 342.355Z" fill="#FEFEFE"/>
<path d="M840.64 342.962C843.708 342.46 856.683 342.104 859.181 343.507L859.395 344.443C857.528 347.554 856.187 344.743 852.629 346.36C851.766 349.06 852.176 355.355 852.237 358.477C852.268 360.608 852.238 362.188 852.115 364.313C851.099 365.69 851.791 365.28 850.113 365.727C847.615 363.057 848.447 350.315 848.521 346.06C844.039 345.888 842.355 347.346 840.64 342.962Z" fill="#FEFEFE"/>
<path d="M420.902 342.992C424.091 342.515 437.662 341.302 439.49 344.125L439.157 345.227C437.065 346.286 434.65 345.993 432.246 345.974L432.218 358.343C432.32 361.343 433.074 364.019 430.509 365.966L429.786 365.488C427.906 361.153 428.479 351.142 428.531 346.06C424.128 346.133 422.698 347.217 420.902 342.992Z" fill="#FEFEFE"/>
<path d="M230.138 343.035C234.564 342.754 243.497 342.19 247.453 343.072C248.09 344.615 248.015 343.862 247.528 345.399C245.846 346.384 243.191 346.011 241.104 345.95L241.115 358.496C241.214 361.086 241.839 363.676 239.813 365.415L238.511 365.054C235.466 360.247 239.46 348.932 236.474 346.035C232.366 346.097 231.591 346.831 230.138 343.035Z" fill="#FEFEFE"/>
<path d="M493.862 342.704C497.18 342.747 509.916 341.866 511.557 343.745L511.318 345.344C508.796 347.034 507.332 344.952 504.81 346.495C504.038 349.036 504.399 355.391 504.454 358.349C504.583 361.839 505.33 363.4 502.801 365.85L502.06 365.409C500.236 361.196 500.891 351.038 500.989 346.029C499.256 345.962 497.517 345.931 495.784 345.937C493.8 344.664 494.602 345.558 493.862 342.704Z" fill="#FEFEFE"/>
<path d="M823.526 342.325C824.892 342.484 825.008 342.551 826.319 343.017C827.96 345.925 827.225 357.994 827.182 361.919C830.213 361.986 834.413 361.098 836.973 362.402C837.842 362.843 837.75 364.019 837.989 365.292L823.508 365.427L823.526 342.325Z" fill="#FEFEFE"/>
<path d="M569.328 342.423C571.355 342.711 571.679 342.386 572.855 343.531C573.418 349.17 573.057 359.353 572.996 365.421C571.545 365.384 571.575 365.335 570.191 364.833C568.318 361.478 569.236 347.229 569.328 342.423Z" fill="#FEFEFE"/>
<path d="M147.292 342.233C148.21 342.478 148.894 342.76 149.784 343.084C151.444 346.886 150.537 361.294 150.426 365.96C149.601 365.745 148.722 365.452 147.901 365.201C146.356 362.121 147.214 346.703 147.292 342.233Z" fill="#FEFEFE"/>
<path d="M252.893 68H244.74L263.06 17.0909H271.935L290.255 68H282.102L267.709 26.3381H267.311L252.893 68ZM254.261 48.0639H280.71V54.527H254.261V48.0639ZM367.248 33.6463H359.492C359.194 31.9891 358.638 30.5308 357.826 29.2713C357.014 28.0118 356.02 26.9429 354.843 26.0646C353.667 25.1863 352.349 24.5234 350.891 24.076C349.449 23.6286 347.916 23.4048 346.292 23.4048C343.359 23.4048 340.732 24.1423 338.412 25.6172C336.109 27.0921 334.286 29.2547 332.944 32.1051C331.618 34.9555 330.955 38.4356 330.955 42.5455C330.955 46.6884 331.618 50.1851 332.944 53.0355C334.286 55.8859 336.117 58.0402 338.437 59.4986C340.757 60.9569 343.367 61.6861 346.267 61.6861C347.875 61.6861 349.4 61.4706 350.841 61.0398C352.3 60.5923 353.617 59.9377 354.794 59.076C355.97 58.2143 356.965 57.1619 357.777 55.919C358.605 54.6596 359.177 53.2178 359.492 51.5938L367.248 51.6186C366.833 54.121 366.029 56.4245 364.836 58.5291C363.66 60.6172 362.143 62.4235 360.287 63.9482C358.448 65.4562 356.343 66.6245 353.973 67.4531C351.604 68.2817 349.018 68.696 346.218 68.696C341.81 68.696 337.882 67.652 334.435 65.5639C330.988 63.4593 328.27 60.4515 326.282 56.5405C324.31 52.6295 323.324 47.9645 323.324 42.5455C323.324 37.1098 324.318 32.4448 326.306 28.5504C328.295 24.6394 331.013 21.6399 334.46 19.5518C337.907 17.4472 341.826 16.3949 346.218 16.3949C348.919 16.3949 351.438 16.7843 353.775 17.5632C356.128 18.3255 358.241 19.4524 360.113 20.9439C361.986 22.4188 363.535 24.2251 364.762 26.3629C365.988 28.4841 366.817 30.9119 367.248 33.6463ZM410.147 68H401.994L420.314 17.0909H429.189L447.509 68H439.355L424.963 26.3381H424.565L410.147 68ZM411.515 48.0639H437.963V54.527H411.515V48.0639ZM501.091 68H484.611V17.0909H501.613C506.602 17.0909 510.885 18.1101 514.465 20.1484C518.045 22.1702 520.787 25.0786 522.693 28.8736C524.615 32.652 525.577 37.1844 525.577 42.4709C525.577 47.7739 524.607 52.3312 522.668 56.1428C520.746 59.9543 517.962 62.8875 514.316 64.9425C510.67 66.9808 506.262 68 501.091 68ZM492.292 61.2884H500.669C504.547 61.2884 507.77 60.5592 510.339 59.1009C512.907 57.6259 514.83 55.4964 516.106 52.7124C517.382 49.9117 518.02 46.4979 518.02 42.4709C518.02 38.477 517.382 35.0881 516.106 32.304C514.846 29.5199 512.965 27.407 510.463 25.9652C507.961 24.5234 504.853 23.8026 501.141 23.8026H492.292V61.2884ZM564.878 68V17.0909H596.796V23.7031H572.559V39.2145H595.13V45.8018H572.559V61.3878H597.094V68H564.878ZM636.806 17.0909H646.128L662.335 56.6648H662.932L679.139 17.0909H688.461V68H681.153V31.1605H680.68L665.666 67.9254H659.601L644.586 31.1357H644.114V68H636.806V17.0909ZM725.451 17.0909H734.176L747.475 40.2337H748.022L761.321 17.0909H770.046L751.576 48.0142V68H743.92V48.0142L725.451 17.0909Z" fill="white"/>
<path d="M208.5 37.5V42.5H28.5V37.5H208.5Z" fill="url(#paint0_linear_9_2)"/>
<path d="M988 37V42H808V37H988Z" fill="url(#paint1_linear_9_2)"/>
<defs>
<linearGradient id="paint0_linear_9_2" x1="118.5" y1="37.5" x2="118.5" y2="42.5" gradientUnits="userSpaceOnUse">
<stop stop-color="#F1D05D"/>
<stop offset="1" stop-color="#DDA31D"/>
</linearGradient>
<linearGradient id="paint1_linear_9_2" x1="898" y1="37" x2="898" y2="42" gradientUnits="userSpaceOnUse">
<stop stop-color="#F1D05D"/>
<stop offset="1" stop-color="#DDA31D"/>
</linearGradient>
</defs>
</svg>
